PathFileType	4	(X/Y/Z)	C:/Users/beibeiliu/ov580/test_trc/User3\sequence.48_training_dense_left.trc
DataRate	CameraRate	NumFrames	NumMarkers	Units	OrigDataRate	OrigDataStartFrame	OrigNumFrames
120	120	21	19	mm	120	135	188
Frame#	Time	ThumbCMC			ThumbMCP			ThumbIP			ThumbTip			IndexMCP			IndexPIP			IndexTip			MiddleMCP			MiddlePIP			MiddleTip			RingMCP			RingPIP			RingTip			PinkyMCP			PinkyPIP			PinkyTip			BackHand1			BackHand2			BackHand3	
		X0	Y0	Z0	X1	Y1	Z1	X2	Y2	Z2	X3	Y3	Z3	X4	Y4	Z4	X5	Y5	Z5	X6	Y6	Z6	X7	Y7	Z7	X8	Y8	Z8	X9	Y9	Z9	X10	Y10	Z10	X11	Y11	Z11	X12	Y12	Z12	X13	Y13	Z13	X14	Y14	Z14	X15	Y15	Z15	X16	Y16	Z16	X17	Y17	Z17	X18	Y18	Z18	
134	1.11667	-125.705	8.87539	51.2683	-98.1227	4.62647	21.4249	-77.1218	-13.1904	7.17134	-63.5931	-34.9189	10.7122	-145.525	-34.908	-8.15252	-143.728	-35.003	-40.2136	-134.43	-40.5244	-60.2776	-138.036	-60.0817	-4.10606	-134.711	-70.6851	-27.9517	-126.718	-78.2473	-62.2353	-111.25	-67.1227	6.90338	-98.0442	-67.5312	-20.1026	-73.2885	-60.8055	-39.0823	-83.8296	-57.0223	19.9407	-71.9409	-31.3723	19.0548	-79.8273	-13.0383	39.9352	-128.146	-56.1358	54.0876	-133.029	-45.1375	82.523	-150.774	-26.4571	57.8898	
135	1.125	-136.12	2.47943	54.3688	-107.41	9.07082	24.9276	-80.7084	-5.73966	8.12167	-60.75	-23.2006	7.79691	-142.207	-41.8494	-13.6971	-137.022	-42.6505	-40.5295	-129.188	-42.3404	-63.8416	-128.583	-64.6584	-5.96347	-124.375	-70.8961	-31.6575	-109.787	-80.6544	-64.3226	-104.614	-63.0233	1.02626	-87.0726	-64.7172	-21.9509	-72.0639	-55.5874	-42.7066	-83.0001	-52.2261	22.6493	-70.2161	-23.8932	19.5077	-79.8254	-6.52561	40.4281	-124.479	-60.8669	53.9486	-124.568	-55.3872	82.0752	-150.152	-37.6777	57.77	
136	1.13333	-137.52	-6.66836	53.3077	-112.579	6.56994	25.4815	-88.1946	4.11665	9.3672	-63.788	-13.5175	6.10464	-140.861	-44.2397	-13.7934	-135.973	-44.2974	-39.3587	-128.57	-41.1027	-62.1195	-122.886	-65.513	-7.66436	-116.805	-70.1374	-35.5914	-105.17	-71.4811	-67.4502	-97.7007	-61.3614	3.77817	-86.0457	-59.6381	-19.0814	-67.2461	-49.4867	-43.2776	-76.7525	-46.7211	17.5776	-67.1591	-21.4829	16.8334	-82.8739	-1.25518	37.8559	-119.847	-61.5025	54.7795	-121.219	-59.1647	82.5973	-146.298	-46.1551	57.8096	
137	1.14167	-143.134	-11.5879	55.1536	-123.799	8.8801	28.8616	-96.4178	6.13141	9.60848	-72.2934	-4.69064	7.40973	-141.729	-45.8816	-9.44065	-141.382	-41.7667	-40.7557	-135.277	-35.7885	-64.814	-119.644	-61.4435	-6.12255	-113.174	-66.158	-38.3726	-99.4507	-65.2158	-66.9929	-94.292	-58.1285	3.76676	-81.9565	-54.5149	-21.1415	-70.8251	-40.3996	-47.2099	-77.5191	-46.1205	15.8332	-68.2598	-20.9262	7.03147	-77.9653	0.292123	20.583	-114.623	-63.1669	52.7689	-116.802	-58.975	81.8007	-146.711	-51.0803	56.4723	
138	1.15	-149.53	-14.9354	60.073	-135.06	6.69414	31.4589	-107.192	10.0346	7.40494	-82.5248	1.04749	9.54238	-144.644	-46.7234	-11.8765	-142.996	-42.8034	-41.5979	-141.484	-32.462	-66.8921	-117.654	-60.9315	-11.682	-113.782	-59.9833	-41.4241	-104.992	-55.4337	-70.1701	-98.6247	-54.893	1.2578	-89.7512	-51.0937	-26.3182	-76.1953	-39.6491	-48.2177	-82.7873	-47.8007	12.5587	-69.2957	-30.4048	-5.35053	-73.5825	-4.82889	-3.72084	-109.447	-64.3233	46.9517	-115.045	-60.6821	80.8871	-145.395	-54.9087	54.1783	
139	1.15833	-156.932	-18.0676	59.7778	-145.328	3.20063	30.3469	-117.016	3.96188	13.5427	-95.9755	-4.0762	18.8356	-150.856	-44.543	-11.4247	-151.553	-38.9694	-40.7387	-146.929	-31.0245	-61.7611	-119.929	-58.9394	-13.7749	-119.576	-56.6842	-38.0796	-114.678	-48.772	-70.1911	-101.638	-54.1814	-1.70957	-93.4175	-52.9171	-29.2184	-87.6121	-42.9212	-54.2558	-84.2648	-48.804	19.6304	-69.7358	-43.9046	-3.98948	-63.7857	-19.2714	-19.9052	-113.091	-61.8458	50.3353	-113.602	-64.9839	74.7056	-143.886	-57.1315	58.0801	
140	1.16667	-160.195	-22.8908	62.5239	-157.94	-0.737921	33.9119	-129.222	3.28318	15.6915	-101.948	-4.71763	23.3919	-147.926	-41.2475	-10.8197	-150.257	-35.9849	-40.2045	-147.97	-26.9536	-62.1249	-124.367	-51.3312	-10.4213	-120.046	-50.1157	-39.3756	-116.431	-39.472	-73.0878	-104.817	-50.6272	-0.496011	-97.9648	-49.6439	-29.6178	-91.6433	-41.3853	-54.0493	-83.496	-44.1872	18.0983	-70.4699	-41.5148	-1.73269	-63.2714	-31.748	-21.5017	-113.001	-59.223	48.3529	-115.868	-63.2305	78.9453	-148.053	-58.0282	54.137	
141	1.175	-167.056	-26.7748	65.7073	-169.844	-11.1372	36.5525	-149.822	1.79263	13.5993	-123.281	2.30092	20.6793	-150.96	-34.6333	-7.81844	-152.126	-29.8869	-34.5134	-152.939	-18.9112	-62.7785	-122.075	-43.6057	-10.0813	-123.07	-38.3312	-43.3366	-118.669	-28.4891	-71.172	-100.323	-41.9695	-1.84531	-94.7286	-39.3254	-24.6762	-87.6224	-32.6307	-49.0418	-80.7828	-35.2234	16.9019	-71.2067	-31.2571	3.04699	-59.2743	-26.3843	-21.5067	-111.352	-53.346	43.6586	-112.963	-61.4097	72.9968	-143.855	-54.0998	55.2092	
142	1.18333	-171.158	-33.7569	69.3026	-180.019	-24.0968	38.6287	-167.411	-7.67239	13.4348	-142.064	2.6821	14.0091	-150.24	-33.4274	-7.33428	-149.966	-27.0543	-35.5832	-150.94	-16.6444	-58.6491	-124.069	-37.022	-12.9231	-119.149	-32.121	-39.5895	-113.833	-18.7866	-71.5613	-103.426	-35.1953	0.85187	-93.5381	-31.6085	-23.1993	-90.4428	-22.6047	-53.0077	-79.6353	-26.3935	18.2614	-72.994	-20.0473	2.81987	-57.1292	-14.9471	-14.1517	-111.829	-51.1525	44.9601	-109.941	-60.2959	72.0905	-142.073	-55.2358	55.419	
143	1.19167	-170.887	-39.6868	67.3403	-183.493	-33.1446	40.8698	-184.369	-18.8104	13.9237	-166.469	-1.96664	2.52842	-149.996	-33.0018	-8.08491	-151.45	-28.1568	-34.7704	-153.014	-16.1895	-59.5254	-119.522	-36.2894	-13.9149	-117.139	-29.1445	-41.1137	-116.667	-16.2836	-71.6086	-101.189	-33.1824	2.01009	-91.1467	-27.3655	-25.5502	-86.5768	-18.3542	-46.6122	-81.5496	-22.2002	23.117	-72.2025	-12.1199	4.38996	-56.7394	1.25799	-13.5087	-112.379	-52.0903	42.5734	-109.5	-59.5235	73.2744	-141.051	-54.5778	54.938	
144	1.2	-170.973	-40.7685	67.7113	-189.2	-36.3263	40.8756	-196.859	-24.0683	15.1144	-193.268	-7.32428	-6.20322	-148.228	-35.8373	-7.61398	-152.886	-28.7052	-35.9127	-153.674	-16.859	-62.2345	-118.3	-38.005	-10.7543	-115.476	-30.8765	-36.9869	-114.008	-15.8311	-70.1992	-99.3675	-32.0167	-2.0178	-91.1651	-25.0938	-20.8485	-81.4458	-6.26174	-46.4767	-83.5757	-20.3969	22.249	-69.4945	-3.5194	6.62179	-61.4542	13.4135	-3.76845	-111.602	-52.9472	44.7094	-110.745	-61.5367	74.6114	-142.684	-56.0486	52.1374	
145	1.20833	-172.901	-41.1633	64.8362	-188.63	-30.9697	44.9746	-202.406	-18.3874	20.4139	-205.858	-3.4163	2.17833	-146.191	-38.2527	-8.91271	-149.111	-33.5534	-33.0053	-150.966	-22.3308	-56.5499	-114.298	-39.5781	-6.51886	-108.972	-32.1411	-33.9157	-106.043	-14.4813	-67.2209	-99.0579	-30.5344	5.4028	-86.6547	-13.99	-17.4272	-84.4008	14.7589	-31.2869	-77.0954	-15.3246	23.893	-72.5656	6.29616	16.6617	-76.1323	32.4772	14.1831	-107.291	-53.7069	49.3674	-108.712	-63.9012	77.7509	-142.601	-58.8017	56.9201	
146	1.21667	-167.339	-37.2497	68.9655	-182.545	-20.4058	48.4216	-200.862	-5.69478	29.7978	-197.968	11.5597	10.9824	-143.612	-41.2413	-3.95441	-151.147	-36.8885	-28.8422	-150.735	-22.0458	-58.3501	-115.058	-43.1287	-3.40103	-105.095	-32.3626	-31.3016	-100.342	-6.98405	-55.2367	-95.886	-26.7417	5.69176	-87.8097	0.427753	-9.84733	-90.899	26.8763	-4.67853	-81.9355	-11.6633	29.7274	-85.2329	12.4965	25.194	-100.06	35.7171	35.3605	-107.707	-55.632	52.7404	-109.59	-65.1948	79.7307	-139.679	-62.2972	59.7051	
147	1.225	-167.16	-34.9852	68.419	-181.856	-14.5729	50.5966	-186.45	3.75424	29.1012	-187.791	23.0752	11.5109	-146.924	-44.7648	-0.416294	-150.303	-40.6677	-28.7694	-151.321	-27.2425	-53.1608	-110.066	-43.7255	-2.82675	-104.227	-29.8712	-29.4318	-101.514	5.37394	-39.7272	-94.1863	-24.2837	11.4092	-93.7108	6.94766	2.15431	-102.987	30.1653	24.9774	-82.0814	-11	32.7629	-94.5558	14.6759	36.4527	-111.8	26.7084	55.7518	-104.219	-58.0744	51.4239	-112.583	-66.9571	85.0476	-143.9	-61.4267	61.7611	
148	1.23333	-167.874	-37.2172	71.1216	-177.408	-14.1275	48.6532	-182.606	4.86981	29.2782	-179.903	25.5625	12.1974	-143.828	-47.9502	1.29754	-147.035	-45.3319	-28.4608	-147.61	-29.852	-54.9876	-114.509	-40.8489	-4.03557	-108.374	-15.6354	-26.2572	-109.258	20.3399	-11.0421	-95.0856	-19.7165	12.8209	-99.04	10.6261	13.4585	-115.987	19.6174	42.3432	-85.711	-13.3409	32.4197	-97.7621	12.0393	39.1736	-114.177	17.6284	63.9236	-104.327	-60.0415	50.813	-113.285	-69.8006	85.2642	-140.872	-64.3182	61.0759	
149	1.24167	-164.429	-37.9217	70.5338	-179.004	-14.6726	51.802	-183.174	6.38311	26.3741	-173.803	24.4511	9.1591	-143.51	-47.7447	-4.29244	-144.564	-42.9737	-29.5431	-148.186	-19.0218	-53.6555	-117.396	-32.2065	-2.85245	-112.541	-0.885253	-16.5785	-122.414	24.0439	18.7761	-101.486	-17.4383	13.0264	-103.225	13.1384	22.6298	-114.548	12.1515	51.9863	-86.5946	-16.3474	31.0127	-92.3118	10.1437	37.187	-109.36	13.4136	63.8047	-102.948	-61.5944	50.2727	-107.556	-68.8081	83.2756	-142.627	-65.7643	60.5456	
150	1.25	-163.058	-36.3255	68.4774	-175.251	-12.3985	48.1519	-181.135	6.11686	29.9151	-173.222	25.1003	11.5026	-143.025	-41.3175	-2.20778	-148.143	-27.2366	-32.5587	-142.076	0.171534	-43.4971	-115.124	-23.0493	-2.80115	-114	10.5927	-2.93766	-122.475	20.3535	30.4471	-103.25	-14.715	11.0078	-103.283	13.1968	24.4701	-115.685	6.37796	53.5043	-83.0012	-16.887	26.3741	-91.1822	9.9543	33.0732	-105.069	16.2054	60.4451	-107.041	-61.8722	52.1928	-109.883	-68.2771	80.8594	-142.531	-65.2949	60.0925	
151	1.25833	-166.528	-27.3764	68.645	-167.921	-5.93048	48.6076	-170.906	15.8716	24.2263	-153.787	28.0008	10.1616	-145.304	-32.232	-2.53245	-143.992	-10.9058	-28.4521	-135.103	20.8306	-24.7429	-117.238	-23.8476	-2.121	-111.754	10.4148	-5.89795	-118.085	16.2829	34.194	-100.099	-17.8895	6.57957	-98.2113	9.94235	17.4391	-107.964	6.82857	46.4213	-85.7673	-22.741	20.5017	-83.2333	4.58823	24.1492	-93.1169	13.8301	49.2342	-108.738	-63.0043	46.8274	-112.35	-69.0982	78.4151	-142.423	-58.973	56.8288	
152	1.26667	-157.9	-7.19113	69.7773	-154.407	16.08	52.0681	-146.909	34.0469	26.6447	-125.294	37.3866	9.87457	-146.723	-14.7368	-5.39634	-137.128	9.62385	-24.8094	-120.939	31.0965	-9.69815	-121.523	-23.3671	-8.67203	-108.299	6.27418	-17.1909	-104.836	14.8999	21.3064	-104.737	-26.2148	1.63814	-88.9406	-0.0873545	1.36164	-97.565	3.52759	36.2903	-83.9942	-32.5848	15.5169	-79.0585	-4.8737	14.8909	-84.0949	5.89957	41.4522	-120.475	-57.7623	48.299	-126.523	-63.3263	76.5855	-150.367	-44.8935	60.0508	
153	1.275	-139.998	14.2546	71.2229	-127.05	38.3241	49.5657	-110.473	43.3481	24.5529	-91.2315	36.8355	10.4595	-141.021	2.68969	-2.0984	-121.815	27.4679	-21.452	-102.563	34.6103	4.5872	-131.373	-13.0212	-13.6355	-107.935	3.97948	-26.6905	-97.3535	17.5512	9.82755	-109.433	-25.7182	-1.78644	-85.8769	-2.9738	-7.20951	-86.9913	5.98298	22.6228	-94.0152	-30.631	10.8523	-73.8868	-9.7272	11.6726	-74.9333	-0.928571	37.7625	-129.063	-45.4285	43.0711	-132.917	-50.1973	77.5115	-152.855	-22.4416	62.8768	
154	1.28333	-122.861	29.3128	72.4432	-102.545	48.6224	47.2257	-86.1639	49.5414	18.707	-77.0422	26.5392	8.77142	-136.988	27.2192	-4.01552	-110.028	36.7701	-17.0876	-93.1645	37.634	9.53602	-134.344	1.91829	-10.4622	-110.083	16.8125	-27.254	-91.4294	20.4286	10.2651	-119.116	-9.4618	-2.22609	-87.6475	-0.968306	-8.44219	-84.127	4.92262	22.5931	-102.582	-27.0827	7.47769	-79.5803	-8.35457	6.2759	-74.4079	-6.31688	33.1323	-138.993	-26.5243	46.4359	-136.958	-33.4095	78.9387	-148.303	2.53373	63.8594	
